<?xml version="1.0" encoding="UTF-8" standalone="no"?>
<svg
   xmlns:dc="http://purl.org/dc/elements/1.1/"
   xmlns:cc="http://creativecommons.org/ns#"
   xmlns:rdf="http://www.w3.org/1999/02/22-rdf-syntax-ns#"
   xmlns:svg="http://www.w3.org/2000/svg"
   xmlns="http://www.w3.org/2000/svg"
   xmlns:sodipodi="http://sodipodi.sourceforge.net/DTD/sodipodi-0.dtd"
   xmlns:inkscape="http://www.inkscape.org/namespaces/inkscape"
   width="86.690025mm"
   height="60.552368mm"
   viewBox="0 0 86.690025 60.552368"
   version="1.1"
   id="svg26"
   inkscape:version="1.0.1 (3bc2e813f5, 2020-09-07)"
   sodipodi:docname="ZoltansHairBlogLogo.svg">
  <defs
     id="defs20" />
  <sodipodi:namedview
     id="base"
     pagecolor="#ffffff"
     bordercolor="#666666"
     borderopacity="1.0"
     inkscape:pageopacity="0.0"
     inkscape:pageshadow="2"
     inkscape:zoom="1.979899"
     inkscape:cx="256.75394"
     inkscape:cy="121.57361"
     inkscape:document-units="mm"
     inkscape:current-layer="layer1"
     inkscape:document-rotation="0"
     showgrid="false"
     inkscape:window-width="1920"
     inkscape:window-height="1057"
     inkscape:window-x="-8"
     inkscape:window-y="-8"
     inkscape:window-maximized="1" />
  <metadata
     id="metadata23">
    <rdf:RDF>
      <cc:Work
         rdf:about="">
        <dc:format>image/svg+xml</dc:format>
        <dc:type
           rdf:resource="http://purl.org/dc/dcmitype/StillImage" />
        <dc:title></dc:title>
      </cc:Work>
    </rdf:RDF>
  </metadata>
  <g
     inkscape:label="Layer 1"
     inkscape:groupmode="layer"
     id="layer1"
     transform="translate(-27.275037,-153.67266)">
    <text
       xml:space="preserve"
       style="font-style:normal;font-weight:normal;font-size:17.278px;line-height:1.25;font-family:sans-serif;fill:#000000;fill-opacity:1;stroke:none;stroke-width:0.431947"
       x="-97.347137"
       y="420.86856"
       id="text30"
       transform="matrix(1.9479121,-0.52795844,0.51709516,0.37321768,0,0)"><tspan
         sodipodi:role="line"
         id="tspan28"
         x="-97.347137"
         y="420.86856"
         style="font-style:normal;font-variant:normal;font-weight:normal;font-stretch:normal;font-size:17.278px;font-family:'Great Vibes';-inkscape-font-specification:'Great Vibes, Normal';font-variant-ligatures:normal;font-variant-caps:normal;font-variant-numeric:normal;font-variant-east-asian:normal;stroke-width:0.431947">Zoltán's</tspan></text>
    <text
       xml:space="preserve"
       style="font-style:normal;font-variant:normal;font-weight:normal;font-stretch:normal;font-size:8.18912px;line-height:1.25;font-family:Cambria;-inkscape-font-specification:'Cambria, Normal';font-variant-ligatures:normal;font-variant-caps:normal;font-variant-numeric:normal;font-variant-east-asian:normal;fill:#000000;fill-opacity:1;stroke:none;stroke-width:0.204731"
       x="22.965082"
       y="248.07416"
       id="text34"
       transform="scale(1.1663508,0.85737499)"><tspan
         sodipodi:role="line"
         id="tspan32"
         x="22.965082"
         y="248.07416"
         style="font-style:normal;font-variant:normal;font-weight:normal;font-stretch:normal;font-size:8.18912px;font-family:Cambria;-inkscape-font-specification:'Cambria, Normal';font-variant-ligatures:normal;font-variant-caps:normal;font-variant-numeric:normal;font-variant-east-asian:normal;stroke-width:0.204731">outstanding hair blog</tspan></text>
    <g
       transform="matrix(0.02414042,0,0,-0.02109335,47.289353,193.28442)"
       fill="#000000"
       stroke="none"
       id="g10">
      <path
         d="m 840,1873 c -8,-3 -43,-32 -77,-64 l -61,-59 h -65 c -112,0 -140,-19 -166,-116 -16,-58 -44,-90 -110,-124 -32,-15 -63,-35 -69,-43 -9,-10 -12,-47 -10,-113 l 3,-99 -47,-64 c -27,-35 -48,-73 -48,-85 0,-12 14,-44 31,-72 56,-87 59,-101 44,-182 -18,-95 -11,-113 70,-164 70,-43 89,-69 100,-133 16,-86 47,-115 123,-115 47,0 54,-6 71,-55 33,-98 110,-183 207,-227 41,-19 66,-23 149,-23 91,0 105,3 158,29 71,37 151,119 182,190 l 24,54 66,4 c 79,5 94,19 119,109 18,63 39,86 113,123 77,39 86,57 78,163 l -7,88 46,61 c 59,78 60,109 9,184 -41,60 -44,82 -28,198 9,74 3,83 -86,138 -60,36 -69,50 -98,160 -16,59 -37,73 -122,83 -41,5 -81,12 -90,15 -8,4 -39,34 -68,66 -47,54 -56,60 -91,60 -21,0 -59,-9 -85,-20 -62,-27 -84,-25 -165,10 -71,31 -75,32 -100,23 z m 213,-859 277,-7 -1,-121 c 0,-67 -4,-199 -8,-294 -8,-166 -10,-176 -40,-237 -39,-78 -102,-136 -180,-166 -78,-29 -194,-24 -266,13 -61,32 -129,103 -158,166 -21,45 -22,59 -20,302 1,140 5,279 9,309 l 6,53 51,-6 c 29,-3 177,-9 330,-12 z M 620,796 c 0,-71 -10,-116 -25,-116 -26,0 -65,52 -65,87 0,39 37,83 70,83 18,0 20,-6 20,-54 z m 783,22 c 12,-6 27,-18 34,-27 13,-17 17,-69 7,-96 -8,-20 -64,-50 -73,-38 -8,8 -2,173 6,173 2,0 14,-5 26,-12 z"
         id="path2" />
      <path
         d="m 890,771 c 0,-15 6,-21 21,-21 14,0 19,5 17,17 -5,26 -38,29 -38,4 z"
         id="path4" />
      <path
         d="m 1025,770 c -8,-14 3,-30 21,-30 8,0 14,9 14,20 0,21 -24,28 -35,10 z"
         id="path6" />
      <path
         d="M 836,695 C 798,683 770,631 770,573 v -43 h 50 50 v -58 c 0,-65 20,-96 67,-108 61,-16 113,39 113,119 v 37 h 50 50 v 50 c 0,62 -20,104 -57,118 -37,15 -218,20 -257,7 z m 126,-214 1,-36 4,38 c 4,33 7,37 34,37 28,0 29,-2 29,-45 0,-79 -72,-123 -120,-75 -15,15 -20,33 -20,73 v 53 l 35,-4 c 32,-4 35,-7 37,-41 z"
         id="path8" />
    </g>
  </g>
</svg>
